:SAMPLES-PER-SECOND 30
:FULLY-SPECIFIED
:DEGREES
655
root  34.4228 40.4955 -44.8568 -7.64227 -4.0549 -0.207214
RightUpLeg  8.20077 -9.19993 -3.47613
RightLeg  10.3368 -11.9869 2.31582
RightFoot  -7.60994 -0.0211214 -1.13987
RightToes  2.91037e-010 0 -3.6325e-017
Spine  4.2057 0.937181 0.848021
Spine1  7.70384 1.52087 -0.706614
HEad  15.6544 11.5608 -1.21004
LeftShoulder1  0.37272 0.205624 -3.13107
LeftArm  -24.9474 18.759 -5.2462
LeftForeArm  15.5107 -11.1172 0.595694
LeftHand  -0.244104 0.0205437 5.32207
RightShoulder  0.0674024 -2.77541 0.988786
RightArm  -21.8363 -9.84278 1.03104
RightForeArm  -14.9882 5.02518 3.2032
RightHand  -4.43774 11.89 -29.4948
LeftUpLeg  11.7202 6.23106 2.13856
LeftLeg  5.81767 10.7057 -2.35392
LeftFoot  -7.94535 0.0193027 0.936735
LeftToes  -1.10052e-010 1.3781e-010 -2.1811e-011
656
root  34.4715 40.4895 -44.9485 -7.56668 -3.81535 -0.279663
RightUpLeg  7.82653 -9.30708 -3.41716
RightLeg  10.6498 -12.1116 2.19479
RightFoot  -7.5367 -0.0170737 -1.19429
RightToes  2.91037e-010 0 -3.6325e-017
Spine  5.23541 0.930904 1.05365
Spine1  7.50916 1.60524 -0.976184
HEad  17.7561 11.2606 -1.25253
LeftShoulder1  0.536393 -0.613543 -5.07797
LeftArm  -25.0667 18.9685 -5.64746
LeftForeArm  14.0786 -10.7543 0.729275
LeftHand  -0.244104 0.0205437 5.32207
RightShoulder  0.129277 -2.31761 2.78384
RightArm  -21.1739 -10.8988 1.15252
RightForeArm  -15.7919 5.78982 3.45913
RightHand  -4.62009 12.2007 -30.1296
LeftUpLeg  11.2417 6.88723 2.37624
LeftLeg  6.381 9.79804 -2.34976
LeftFoot  -7.98097 0.0256811 0.826339
LeftToes  -1.10052e-010 1.3781e-010 -2.1811e-011
657
root  34.5146 40.4728 -45.0996 -7.37248 -3.5484 -0.330292
RightUpLeg  7.24963 -9.5133 -3.38647
RightLeg  10.9587 -12.2664 2.15997
RightFoot  -7.54203 -0.00910284 -1.30587
RightToes  2.91037e-010 0 -3.6325e-017
Spine  6.54644 0.862002 1.2393
Spine1  7.362 1.62121 -1.24115
HEad  19.8716 11.2588 -1.26534
LeftShoulder1  0.790598 -1.62759 -7.78521
LeftArm  -25.3822 19.2576 -5.7541
LeftForeArm  13.1594 -10.9882 0.779009
LeftHand  -0.244104 0.0205437 5.32207
RightShoulder  0.26122 -1.49179 5.11138
RightArm  -20.3816 -12.2615 1.28315
RightForeArm  -15.313 6.95923 3.71791
RightHand  -4.66045 12.2997 -30.218
LeftUpLeg  10.381 7.68376 2.50379
LeftLeg  7.23534 8.72511 -2.17584
LeftFoot  -8.12779 0.026284 0.801389
LeftToes  -1.10052e-010 1.3781e-010 -2.1811e-011
658
root  34.5489 40.4489 -45.3196 -6.91486 -3.20493 -0.355988
RightUpLeg  6.21619 -9.7409 -3.29338
RightLeg  11.4143 -12.4873 2.0764
RightFoot  -7.66014 -0.0118193 -1.24133
RightToes  2.91037e-010 0 -3.6325e-017
Spine  8.02084 0.736327 1.33988
Spine1  7.37287 1.53967 -1.34152
HEad  21.4811 11.329 -1.4406
LeftShoulder1  1.08577 -2.49226 -10.8185
LeftArm  -25.7345 19.2426 -6.18226
LeftForeArm  13.1508 -11.4708 0.717116
LeftHand  -0.244104 0.0205437 5.32207
RightShoulder  0.488105 -0.285205 7.62123
RightArm  -19.2026 -13.9215 1.58463
RightForeArm  -13.1183 8.1997 3.9702
RightHand  -4.38858 11.85 -29.245
LeftUpLeg  8.81581 8.77402 2.45578
LeftLeg  8.62213 7.32356 -1.65731
LeftFoot  -8.28155 0.0332211 0.621479
LeftToes  -1.10052e-010 1.3781e-010 -2.1811e-011
659
root  34.5682 40.404 -45.6132 -6.25546 -2.67436 -0.383133
RightUpLeg  4.68951 -10.0599 -3.07214
RightLeg  12.237 -12.867 1.81178
RightFoot  -8.00543 -0.0224026 -1.09173
RightToes  2.91037e-010 0 -3.6325e-017
Spine  9.82389 0.605328 1.55567
Spine1  7.47814 1.46602 -1.38129
HEad  22.2179 10.9771 -1.7834
LeftShoulder1  1.4248 -3.32355 -13.8619
LeftArm  -26.1026 18.5211 -7.25218
LeftForeArm  13.8624 -11.7441 0.621132
LeftHand  -0.244104 0.0205437 5.32207
RightShoulder  0.761346 0.895378 10.0364
RightArm  -18.0218 -15.8061 2.45912
RightForeArm  -9.56757 9.42053 4.12348
RightHand  -3.87035 10.8959 -27.398
LeftUpLeg  6.55797 10.2998 2.21644
LeftLeg  10.6183 5.43168 -0.74196
LeftFoot  -8.44961 0.0462324 0.177218
LeftToes  -1.10052e-010 1.3781e-010 -2.1811e-011
660
root  34.5694 40.302 -45.9902 -5.63536 -1.94325 -0.445816
RightUpLeg  2.86887 -10.7975 -2.7178
RightLeg  13.5609 -13.343 1.30489
RightFoot  -8.76695 -0.0311571 -1.2683
RightToes  2.91037e-010 0 -3.6325e-017
Spine  12.3611 0.448717 2.15359
Spine1  7.51887 1.47865 -1.66818
HEad  22.0489 10.1088 -2.14181
LeftShoulder1  1.93109 -4.55932 -17.2143
LeftArm  -26.0992 16.9318 -8.26551
LeftForeArm  14.7852 -11.4934 0.515911
LeftHand  -0.244104 0.0205437 5.32207
RightShoulder  1.05584 1.9098 12.469
RightArm  -17.552 -17.7568 4.13776
RightForeArm  -6.46523 10.6015 4.10354
RightHand  -3.35332 9.74367 -25.642
LeftUpLeg  3.67494 12.1268 1.84671
LeftLeg  13.5547 3.0516 0.309777
LeftFoot  -8.91699 0.0597269 -0.304103
LeftToes  -1.10052e-010 1.3781e-010 -2.1811e-011
661
root  34.5482 40.1396 -46.4673 -5.01942 -0.909531 -0.590469
RightUpLeg  0.663352 -12.2288 -2.15904
RightLeg  15.424 -13.8528 0.513348
RightFoot  -9.78553 -0.0428132 -1.72774
RightToes  2.91037e-010 0 -3.6325e-017
Spine  15.7499 0.133465 3.13811
Spine1  7.4121 1.44053 -2.14807
HEad  20.9733 8.9761 -2.49396
LeftShoulder1  2.74192 -6.39125 -21.2652
LeftArm  -25.3433 14.3646 -8.41485
LeftForeArm  15.3938 -10.5331 0.299136
LeftHand  -0.244104 0.0205437 5.32207
RightShoulder  1.4052 2.93054 15.0381
RightArm  -18.1715 -19.4905 6.62371
RightForeArm  -5.48564 11.6753 3.99514
RightHand  -3.05646 8.82741 -24.9081
LeftUpLeg  -0.420195 12.6742 1.44346
LeftLeg  18.287 1.4884 0.972118
LeftFoot  -9.30147 0.0711514 -0.895612
LeftToes  -1.10052e-010 1.3781e-010 -2.1811e-011
662
root  34.4971 39.9287 -47.0369 -4.0818 0.70166 -0.904556
RightUpLeg  -2.22881 -14.3417 -1.23309
RightLeg  17.6793 -14.3144 -0.540046
RightFoot  -10.8066 -0.0631733 -2.11173
RightToes  2.91037e-010 0 -3.6325e-017
Spine  19.5559 -0.423049 4.43228
Spine1  7.20723 1.16185 -2.39557
HEad  18.8558 7.59223 -2.94928
LeftShoulder1  3.87594 -8.65242 -25.6921
LeftArm  -24.1665 10.665 -7.96796
LeftForeArm  15.6296 -8.83867 -0.113894
LeftHand  -0.244104 0.0205437 5.32207
RightShoulder  1.8223 4.04077 17.5695
RightArm  -19.4877 -20.724 9.69371
RightForeArm  -5.85832 12.5401 3.90634
RightHand  -2.96101 8.39842 -24.8736
LeftUpLeg  -6.47027 10.9378 1.2522
LeftLeg  25.3704 1.598 1.15777
LeftFoot  -8.24283 0.110801 -2.1458
LeftToes  -1.10052e-010 1.3781e-010 -2.1811e-011
663
root  34.4246 39.6654 -47.6455 -2.78886 2.68675 -1.51102
RightUpLeg  -5.89039 -17.1616 0.253378
RightLeg  20.3499 -14.0716 -1.76574
RightFoot  -11.7322 -0.087048 -2.304
RightToes  2.91037e-010 0 -3.6325e-017
Spine  23.2115 -1.0727 6.23337
Spine1  7.16941 0.789898 -2.20964
HEad  15.6846 5.76123 -3.5119
LeftShoulder1  5.22629 -11.0759 -29.7901
LeftArm  -23.3883 5.90384 -7.87077
LeftForeArm  16.1767 -6.78937 -0.561547
LeftHand  -0.244104 0.0205437 5.32207
RightShoulder  2.28909 5.22516 19.8098
RightArm  -20.9061 -21.1124 12.9768
RightForeArm  -5.19712 12.9325 3.77437
RightHand  -2.87955 8.23007 -24.502
LeftUpLeg  -13.824 9.21751 1.43092
LeftLeg  33.3594 1.46549 1.38542
LeftFoot  -5.17712 0.252197 -4.05342
LeftToes  -1.10052e-010 1.3781e-010 -2.1811e-011
664
root  34.3494 39.4047 -48.2367 -1.46416 4.03447 -2.16133
RightUpLeg  -9.96929 -20.6508 2.12377
RightLeg  23.1639 -11.7093 -2.80954
RightFoot  -12.2045 -0.100696 -2.41337
RightToes  2.91037e-010 0 -3.6325e-017
Spine  26.6475 -1.46832 8.15165
Spine1  7.70884 0.728223 -1.86983
HEad  11.7616 3.69035 -3.99999
LeftShoulder1  6.64986 -13.3757 -33.3578
LeftArm  -23.535 0.515184 -8.46846
LeftForeArm  17.8307 -5.2074 -0.825859
LeftHand  -0.244104 0.0205437 5.32207
RightShoulder  2.81738 6.5554 21.7193
RightArm  -22.1213 -19.9347 16.1378
RightForeArm  -3.03259 12.5609 3.54629
RightHand  -2.77911 8.10063 -23.9054
LeftUpLeg  -20.4085 8.33544 1.76931
LeftLeg  39.1872 1.12628 1.34698
LeftFoot  -2.11028 0.460781 -5.58744
LeftToes  -1.10052e-010 1.3781e-010 -2.1811e-011
665
root  34.2754 39.2616 -48.7987 -0.139999 4.05821 -2.15866
RightUpLeg  -13.7843 -23.4025 3.84106
RightLeg  24.8279 -8.63577 -3.52242
RightFoot  -11.92 -0.0943001 -2.75449
RightToes  2.91037e-010 0 -3.6325e-017
Spine  30.1798 -1.40011 8.81879
Spine1  8.89068 1.03647 -1.73293
HEad  7.45539 1.96889 -4.18889
LeftShoulder1  8.04841 -15.3064 -36.6789
LeftArm  -24.2079 -5.06549 -9.17358
LeftForeArm  20.296 -4.75403 -1.06066
LeftHand  -0.244104 0.0205437 5.32207
RightShoulder  3.45607 8.10214 23.5903
RightArm  -22.9154 -16.3213 18.727
RightForeArm  -1.39758 11.4505 3.36794
RightHand  -2.87006 8.29283 -24.316
LeftUpLeg  -24.83 9.01207 1.41263
LeftLeg  40.4662 0.462731 0.80707
LeftFoot  -1.48562 0.54061 -6.17517
LeftToes  -1.10052e-010 1.3781e-010 -2.1811e-011
666
root  34.2121 39.2247 -49.3234 1.53464 3.3203 -1.45662
RightUpLeg  -17.3947 -23.6383 4.85542
RightLeg  25.5318 -7.44765 -4.06925
RightFoot  -11.1272 -0.0695621 -3.05528
RightToes  2.91037e-010 0 -3.6325e-017
Spine  33.8882 -1.15767 8.10776
Spine1  10.2787 1.30316 -1.78592
HEad  2.89332 0.830482 -4.00505
LeftShoulder1  9.35899 -16.856 -39.7224
LeftArm  -24.4382 -10.8181 -9.44724
LeftForeArm  22.6811 -5.14242 -1.6157
LeftHand  -0.244104 0.0205437 5.32207
RightShoulder  4.26026 9.81648 25.8904
RightArm  -22.9933 -10.1696 20.068
RightForeArm  -1.18491 9.90834 3.41189
RightHand  -3.28652 9.27985 -25.894
LeftUpLeg  -27.5368 10.5478 0.0902389
LeftLeg  37.1844 -0.0143264 0.348253
LeftFoot  -2.69095 0.519251 -6.64911
LeftToes  -1.10052e-010 1.3781e-010 -2.1811e-011
667
root  34.1907 39.1709 -49.782 3.70988 2.69177 -0.811935
RightUpLeg  -21.1427 -22.3441 5.52868
RightLeg  26.1307 -7.95187 -4.47161
RightFoot  -10.4173 -0.0442029 -3.25328
RightToes  2.91037e-010 0 -3.6325e-017
Spine  37.4489 -1.2163 7.44167
Spine1  11.4008 1.26274 -1.97805
HEad  -1.97567 0.00744491 -3.65728
LeftShoulder1  10.4442 -18.1763 -41.7921
LeftArm  -24.0276 -16.8982 -9.79536
LeftForeArm  25.4072 -5.44593 -2.42134
LeftHand  -0.244104 0.0205437 5.32207
RightShoulder  5.19741 11.5509 28.5192
RightArm  -22.3235 -2.37207 20.1022
RightForeArm  -1.05398 8.21574 3.67179
RightHand  -3.96749 11.0519 -27.8043
LeftUpLeg  -29.5811 12.0427 -1.67418
LeftLeg  31.3841 0.459439 0.628954
LeftFoot  -3.05651 0.516419 -6.85423
LeftToes  -1.10052e-010 1.3781e-010 -2.1811e-011
